<?xml version="1.0" encoding="UTF-8" standalone="no"?>
<!DOCTYPE svg PUBLIC "-//W3C//DTD SVG 1.1//EN"
 "http://www.w3.org/Graphics/SVG/1.1/DTD/svg11.dtd">
<!-- Generated by graphviz version 2.43.0 (0)
 -->
<!-- Title: %3 Pages: 1 -->
<svg width="1140pt" height="128pt"
 viewBox="0.00 0.00 1140.00 128.00" xmlns="http://www.w3.org/2000/svg" xmlns:xlink="http://www.w3.org/1999/xlink">
<g id="graph0" class="graph" transform="scale(1 1) rotate(0) translate(4 124)">
<title>%3</title>
<polygon fill="white" stroke="transparent" points="-4,4 -4,-124 1136,-124 1136,4 -4,4"/>
<!-- 139536581603840 -->
<g id="node1" class="node">
<title>139536581603840</title>
<polygon fill="none" stroke="black" points="945,-27.5 945,-63.5 1132,-63.5 1132,-27.5 945,-27.5"/>
<text text-anchor="middle" x="957.5" y="-41.8" font-family="Times,serif" font-size="14.00">L</text>
<polyline fill="none" stroke="black" points="970,-27.5 970,-63.5 "/>
<text text-anchor="middle" x="1010" y="-41.8" font-family="Times,serif" font-size="14.00">data 0.9993</text>
<polyline fill="none" stroke="black" points="1050,-27.5 1050,-63.5 "/>
<text text-anchor="middle" x="1091" y="-41.8" font-family="Times,serif" font-size="14.00">grad 1.0000</text>
</g>
<!-- 139536581603840tanh -->
<g id="node2" class="node">
<title>139536581603840tanh</title>
<ellipse fill="none" stroke="black" cx="882" cy="-45.5" rx="27" ry="18"/>
<text text-anchor="middle" x="882" y="-41.8" font-family="Times,serif" font-size="14.00">tanh</text>
</g>
<!-- 139536581603840tanh&#45;&gt;139536581603840 -->
<g id="edge1" class="edge">
<title>139536581603840tanh&#45;&gt;139536581603840</title>
<path fill="none" stroke="black" d="M909.21,-45.5C916.73,-45.5 925.43,-45.5 934.67,-45.5"/>
<polygon fill="black" stroke="black" points="934.89,-49 944.89,-45.5 934.89,-42 934.89,-49"/>
</g>
<!-- 139536581602832 -->
<g id="node3" class="node">
<title>139536581602832</title>
<polygon fill="none" stroke="black" points="634,-27.5 634,-63.5 819,-63.5 819,-27.5 634,-27.5"/>
<text text-anchor="middle" x="645.5" y="-41.8" font-family="Times,serif" font-size="14.00">d</text>
<polyline fill="none" stroke="black" points="657,-27.5 657,-63.5 "/>
<text text-anchor="middle" x="697" y="-41.8" font-family="Times,serif" font-size="14.00">data 4.0000</text>
<polyline fill="none" stroke="black" points="737,-27.5 737,-63.5 "/>
<text text-anchor="middle" x="778" y="-41.8" font-family="Times,serif" font-size="14.00">grad 0.0013</text>
</g>
<!-- 139536581602832&#45;&gt;139536581603840tanh -->
<g id="edge8" class="edge">
<title>139536581602832&#45;&gt;139536581603840tanh</title>
<path fill="none" stroke="black" d="M819.01,-45.5C828.01,-45.5 836.74,-45.5 844.66,-45.5"/>
<polygon fill="black" stroke="black" points="844.91,-49 854.91,-45.5 844.91,-42 844.91,-49"/>
</g>
<!-- 139536581602832+ -->
<g id="node4" class="node">
<title>139536581602832+</title>
<ellipse fill="none" stroke="black" cx="571" cy="-45.5" rx="27" ry="18"/>
<text text-anchor="middle" x="571" y="-41.8" font-family="Times,serif" font-size="14.00">+</text>
</g>
<!-- 139536581602832+&#45;&gt;139536581602832 -->
<g id="edge2" class="edge">
<title>139536581602832+&#45;&gt;139536581602832</title>
<path fill="none" stroke="black" d="M598.04,-45.5C605.58,-45.5 614.3,-45.5 623.57,-45.5"/>
<polygon fill="black" stroke="black" points="623.81,-49 633.81,-45.5 623.81,-42 623.81,-49"/>
</g>
<!-- 139536581599808 -->
<g id="node5" class="node">
<title>139536581599808</title>
<polygon fill="none" stroke="black" points="317,-55.5 317,-91.5 507,-91.5 507,-55.5 317,-55.5"/>
<text text-anchor="middle" x="328.5" y="-69.8" font-family="Times,serif" font-size="14.00">e</text>
<polyline fill="none" stroke="black" points="340,-55.5 340,-91.5 "/>
<text text-anchor="middle" x="382.5" y="-69.8" font-family="Times,serif" font-size="14.00">data &#45;6.0000</text>
<polyline fill="none" stroke="black" points="425,-55.5 425,-91.5 "/>
<text text-anchor="middle" x="466" y="-69.8" font-family="Times,serif" font-size="14.00">grad 0.0013</text>
</g>
<!-- 139536581599808&#45;&gt;139536581602832+ -->
<g id="edge6" class="edge">
<title>139536581599808&#45;&gt;139536581602832+</title>
<path fill="none" stroke="black" d="M507.05,-56.73C516.89,-54.97 526.39,-53.28 534.9,-51.76"/>
<polygon fill="black" stroke="black" points="535.52,-55.2 544.75,-50 534.29,-48.31 535.52,-55.2"/>
</g>
<!-- 139536581599808* -->
<g id="node6" class="node">
<title>139536581599808*</title>
<ellipse fill="none" stroke="black" cx="253" cy="-73.5" rx="27" ry="18"/>
<text text-anchor="middle" x="253" y="-69.8" font-family="Times,serif" font-size="14.00">*</text>
</g>
<!-- 139536581599808*&#45;&gt;139536581599808 -->
<g id="edge3" class="edge">
<title>139536581599808*&#45;&gt;139536581599808</title>
<path fill="none" stroke="black" d="M280.28,-73.5C288.05,-73.5 297.08,-73.5 306.68,-73.5"/>
<polygon fill="black" stroke="black" points="306.88,-77 316.88,-73.5 306.88,-70 306.88,-77"/>
</g>
<!-- 139536581599568 -->
<g id="node7" class="node">
<title>139536581599568</title>
<polygon fill="none" stroke="black" points="0.5,-83.5 0.5,-119.5 189.5,-119.5 189.5,-83.5 0.5,-83.5"/>
<text text-anchor="middle" x="12" y="-97.8" font-family="Times,serif" font-size="14.00">a</text>
<polyline fill="none" stroke="black" points="23.5,-83.5 23.5,-119.5 "/>
<text text-anchor="middle" x="63.5" y="-97.8" font-family="Times,serif" font-size="14.00">data 2.0000</text>
<polyline fill="none" stroke="black" points="103.5,-83.5 103.5,-119.5 "/>
<text text-anchor="middle" x="146.5" y="-97.8" font-family="Times,serif" font-size="14.00">grad &#45;0.0040</text>
</g>
<!-- 139536581599568&#45;&gt;139536581599808* -->
<g id="edge5" class="edge">
<title>139536581599568&#45;&gt;139536581599808*</title>
<path fill="none" stroke="black" d="M189.9,-84.65C199.42,-82.94 208.62,-81.29 216.89,-79.8"/>
<polygon fill="black" stroke="black" points="217.59,-83.23 226.81,-78.02 216.35,-76.34 217.59,-83.23"/>
</g>
<!-- 139536581599664 -->
<g id="node8" class="node">
<title>139536581599664</title>
<polygon fill="none" stroke="black" points="316,-0.5 316,-36.5 508,-36.5 508,-0.5 316,-0.5"/>
<text text-anchor="middle" x="327.5" y="-14.8" font-family="Times,serif" font-size="14.00">c</text>
<polyline fill="none" stroke="black" points="339,-0.5 339,-36.5 "/>
<text text-anchor="middle" x="382.5" y="-14.8" font-family="Times,serif" font-size="14.00">data 10.0000</text>
<polyline fill="none" stroke="black" points="426,-0.5 426,-36.5 "/>
<text text-anchor="middle" x="467" y="-14.8" font-family="Times,serif" font-size="14.00">grad 0.0013</text>
</g>
<!-- 139536581599664&#45;&gt;139536581602832+ -->
<g id="edge7" class="edge">
<title>139536581599664&#45;&gt;139536581602832+</title>
<path fill="none" stroke="black" d="M508.4,-34.91C517.69,-36.5 526.64,-38.04 534.71,-39.43"/>
<polygon fill="black" stroke="black" points="534.32,-42.91 544.76,-41.16 535.5,-36.02 534.32,-42.91"/>
</g>
<!-- 139536581592560 -->
<g id="node9" class="node">
<title>139536581592560</title>
<polygon fill="none" stroke="black" points="0,-28.5 0,-64.5 190,-64.5 190,-28.5 0,-28.5"/>
<text text-anchor="middle" x="11.5" y="-42.8" font-family="Times,serif" font-size="14.00">b</text>
<polyline fill="none" stroke="black" points="23,-28.5 23,-64.5 "/>
<text text-anchor="middle" x="65.5" y="-42.8" font-family="Times,serif" font-size="14.00">data &#45;3.0000</text>
<polyline fill="none" stroke="black" points="108,-28.5 108,-64.5 "/>
<text text-anchor="middle" x="149" y="-42.8" font-family="Times,serif" font-size="14.00">grad 0.0027</text>
</g>
<!-- 139536581592560&#45;&gt;139536581599808* -->
<g id="edge4" class="edge">
<title>139536581592560&#45;&gt;139536581599808*</title>
<path fill="none" stroke="black" d="M190.34,-62.83C199.62,-64.44 208.58,-65.99 216.66,-67.38"/>
<polygon fill="black" stroke="black" points="216.27,-70.87 226.72,-69.12 217.46,-63.97 216.27,-70.87"/>
</g>
</g>
</svg>
