<?xml version="1.0" encoding="UTF-8" standalone="no"?>
<!DOCTYPE svg PUBLIC "-//W3C//DTD SVG 1.1//EN"
 "http://www.w3.org/Graphics/SVG/1.1/DTD/svg11.dtd">
<!-- Generated by graphviz version 2.43.0 (0)
 -->
<!-- Title: %3 Pages: 1 -->
<svg width="2569pt" height="375pt"
 viewBox="0.00 0.00 2569.00 375.00" xmlns="http://www.w3.org/2000/svg" xmlns:xlink="http://www.w3.org/1999/xlink">
<g id="graph0" class="graph" transform="scale(1 1) rotate(0) translate(4 371)">
<title>%3</title>
<polygon fill="white" stroke="transparent" points="-4,4 -4,-371 2565,-371 2565,4 -4,4"/>
<!-- 139535791036544 -->
<g id="node1" class="node">
<title>139535791036544</title>
<polygon fill="none" stroke="black" points="641,-55.5 641,-91.5 832,-91.5 832,-55.5 641,-55.5"/>
<text text-anchor="middle" x="651" y="-69.8" font-family="Times,serif" font-size="14.00"> </text>
<polyline fill="none" stroke="black" points="661,-55.5 661,-91.5 "/>
<text text-anchor="middle" x="703.5" y="-69.8" font-family="Times,serif" font-size="14.00">data &#45;0.1589</text>
<polyline fill="none" stroke="black" points="746,-55.5 746,-91.5 "/>
<text text-anchor="middle" x="789" y="-69.8" font-family="Times,serif" font-size="14.00">grad &#45;0.1055</text>
</g>
<!-- 139535791037168+ -->
<g id="node20" class="node">
<title>139535791037168+</title>
<ellipse fill="none" stroke="black" cx="895" cy="-128.5" rx="27" ry="18"/>
<text text-anchor="middle" x="895" y="-124.8" font-family="Times,serif" font-size="14.00">+</text>
</g>
<!-- 139535791036544&#45;&gt;139535791037168+ -->
<g id="edge15" class="edge">
<title>139535791036544&#45;&gt;139535791037168+</title>
<path fill="none" stroke="black" d="M805.25,-91.56C814.31,-94.35 823.43,-97.36 832,-100.5 842.5,-104.35 853.72,-109.18 863.69,-113.75"/>
<polygon fill="black" stroke="black" points="862.26,-116.94 872.8,-118 865.22,-110.6 862.26,-116.94"/>
</g>
<!-- 139535791036544+ -->
<g id="node2" class="node">
<title>139535791036544+</title>
<ellipse fill="none" stroke="black" cx="578" cy="-73.5" rx="27" ry="18"/>
<text text-anchor="middle" x="578" y="-69.8" font-family="Times,serif" font-size="14.00">+</text>
</g>
<!-- 139535791036544+&#45;&gt;139535791036544 -->
<g id="edge1" class="edge">
<title>139535791036544+&#45;&gt;139535791036544</title>
<path fill="none" stroke="black" d="M605.19,-73.5C612.67,-73.5 621.31,-73.5 630.51,-73.5"/>
<polygon fill="black" stroke="black" points="630.68,-77 640.68,-73.5 630.68,-70 630.68,-77"/>
</g>
<!-- 139535791038608 -->
<g id="node3" class="node">
<title>139535791038608</title>
<polygon fill="none" stroke="black" points="1807,-110.5 1807,-146.5 1994,-146.5 1994,-110.5 1807,-110.5"/>
<text text-anchor="middle" x="1817" y="-124.8" font-family="Times,serif" font-size="14.00"> </text>
<polyline fill="none" stroke="black" points="1827,-110.5 1827,-146.5 "/>
<text text-anchor="middle" x="1869.5" y="-124.8" font-family="Times,serif" font-size="14.00">data &#45;0.1268</text>
<polyline fill="none" stroke="black" points="1912,-110.5 1912,-146.5 "/>
<text text-anchor="middle" x="1953" y="-124.8" font-family="Times,serif" font-size="14.00">grad 1.0000</text>
</g>
<!-- 139535791038368+ -->
<g id="node37" class="node">
<title>139535791038368+</title>
<ellipse fill="none" stroke="black" cx="2280" cy="-155.5" rx="27" ry="18"/>
<text text-anchor="middle" x="2280" y="-151.8" font-family="Times,serif" font-size="14.00">+</text>
</g>
<!-- 139535791038608&#45;&gt;139535791038368+ -->
<g id="edge38" class="edge">
<title>139535791038608&#45;&gt;139535791038368+</title>
<path fill="none" stroke="black" d="M1994.33,-135.14C2074.52,-140.88 2186.17,-148.86 2242.87,-152.92"/>
<polygon fill="black" stroke="black" points="2242.9,-156.43 2253.12,-153.65 2243.39,-149.44 2242.9,-156.43"/>
</g>
<!-- 139535791038608* -->
<g id="node4" class="node">
<title>139535791038608*</title>
<ellipse fill="none" stroke="black" cx="1521" cy="-128.5" rx="27" ry="18"/>
<text text-anchor="middle" x="1521" y="-124.8" font-family="Times,serif" font-size="14.00">*</text>
</g>
<!-- 139535791038608*&#45;&gt;139535791038608 -->
<g id="edge2" class="edge">
<title>139535791038608*&#45;&gt;139535791038608</title>
<path fill="none" stroke="black" d="M1548.25,-128.5C1598.86,-128.5 1712.4,-128.5 1796.77,-128.5"/>
<polygon fill="black" stroke="black" points="1796.9,-132 1806.9,-128.5 1796.9,-125 1796.9,-132"/>
</g>
<!-- 139535791034528 -->
<g id="node5" class="node">
<title>139535791034528</title>
<polygon fill="none" stroke="black" points="645.5,-275.5 645.5,-311.5 827.5,-311.5 827.5,-275.5 645.5,-275.5"/>
<text text-anchor="middle" x="655.5" y="-289.8" font-family="Times,serif" font-size="14.00"> </text>
<polyline fill="none" stroke="black" points="665.5,-275.5 665.5,-311.5 "/>
<text text-anchor="middle" x="705.5" y="-289.8" font-family="Times,serif" font-size="14.00">data 0.6888</text>
<polyline fill="none" stroke="black" points="745.5,-275.5 745.5,-311.5 "/>
<text text-anchor="middle" x="786.5" y="-289.8" font-family="Times,serif" font-size="14.00">grad 0.0201</text>
</g>
<!-- 139535791034912+ -->
<g id="node14" class="node">
<title>139535791034912+</title>
<ellipse fill="none" stroke="black" cx="895" cy="-238.5" rx="27" ry="18"/>
<text text-anchor="middle" x="895" y="-234.8" font-family="Times,serif" font-size="14.00">+</text>
</g>
<!-- 139535791034528&#45;&gt;139535791034912+ -->
<g id="edge32" class="edge">
<title>139535791034528&#45;&gt;139535791034912+</title>
<path fill="none" stroke="black" d="M805.25,-275.44C814.31,-272.65 823.43,-269.64 832,-266.5 842.5,-262.65 853.72,-257.82 863.69,-253.25"/>
<polygon fill="black" stroke="black" points="865.22,-256.4 872.8,-249 862.26,-250.06 865.22,-256.4"/>
</g>
<!-- 139535791034528+ -->
<g id="node6" class="node">
<title>139535791034528+</title>
<ellipse fill="none" stroke="black" cx="578" cy="-293.5" rx="27" ry="18"/>
<text text-anchor="middle" x="578" y="-289.8" font-family="Times,serif" font-size="14.00">+</text>
</g>
<!-- 139535791034528+&#45;&gt;139535791034528 -->
<g id="edge3" class="edge">
<title>139535791034528+&#45;&gt;139535791034528</title>
<path fill="none" stroke="black" d="M605.19,-293.5C613.92,-293.5 624.23,-293.5 635.17,-293.5"/>
<polygon fill="black" stroke="black" points="635.36,-297 645.36,-293.5 635.36,-290 635.36,-297"/>
</g>
<!-- 139536593637680 -->
<g id="node7" class="node">
<title>139536593637680</title>
<polygon fill="none" stroke="black" points="5,-309.5 5,-345.5 187,-345.5 187,-309.5 5,-309.5"/>
<text text-anchor="middle" x="15" y="-323.8" font-family="Times,serif" font-size="14.00"> </text>
<polyline fill="none" stroke="black" points="25,-309.5 25,-345.5 "/>
<text text-anchor="middle" x="65" y="-323.8" font-family="Times,serif" font-size="14.00">data 0.6888</text>
<polyline fill="none" stroke="black" points="105,-309.5 105,-345.5 "/>
<text text-anchor="middle" x="146" y="-323.8" font-family="Times,serif" font-size="14.00">grad 0.0201</text>
</g>
<!-- 139535791034288* -->
<g id="node39" class="node">
<title>139535791034288*</title>
<ellipse fill="none" stroke="black" cx="255" cy="-327.5" rx="27" ry="18"/>
<text text-anchor="middle" x="255" y="-323.8" font-family="Times,serif" font-size="14.00">*</text>
</g>
<!-- 139536593637680&#45;&gt;139535791034288* -->
<g id="edge17" class="edge">
<title>139536593637680&#45;&gt;139535791034288*</title>
<path fill="none" stroke="black" d="M187.42,-327.5C198,-327.5 208.29,-327.5 217.48,-327.5"/>
<polygon fill="black" stroke="black" points="217.73,-331 227.73,-327.5 217.73,-324 217.73,-331"/>
</g>
<!-- 139535791034720 -->
<g id="node8" class="node">
<title>139535791034720</title>
<polygon fill="none" stroke="black" points="643,-220.5 643,-256.5 830,-256.5 830,-220.5 643,-220.5"/>
<text text-anchor="middle" x="653" y="-234.8" font-family="Times,serif" font-size="14.00"> </text>
<polyline fill="none" stroke="black" points="663,-220.5 663,-256.5 "/>
<text text-anchor="middle" x="705.5" y="-234.8" font-family="Times,serif" font-size="14.00">data &#45;1.0318</text>
<polyline fill="none" stroke="black" points="748,-220.5 748,-256.5 "/>
<text text-anchor="middle" x="789" y="-234.8" font-family="Times,serif" font-size="14.00">grad 0.0201</text>
</g>
<!-- 139535791034720&#45;&gt;139535791034912+ -->
<g id="edge19" class="edge">
<title>139535791034720&#45;&gt;139535791034912+</title>
<path fill="none" stroke="black" d="M830.35,-238.5C839.97,-238.5 849.29,-238.5 857.7,-238.5"/>
<polygon fill="black" stroke="black" points="857.81,-242 867.81,-238.5 857.81,-235 857.81,-242"/>
</g>
<!-- 139535791034720* -->
<g id="node9" class="node">
<title>139535791034720*</title>
<ellipse fill="none" stroke="black" cx="578" cy="-238.5" rx="27" ry="18"/>
<text text-anchor="middle" x="578" y="-234.8" font-family="Times,serif" font-size="14.00">*</text>
</g>
<!-- 139535791034720*&#45;&gt;139535791034720 -->
<g id="edge4" class="edge">
<title>139535791034720*&#45;&gt;139535791034720</title>
<path fill="none" stroke="black" d="M605.19,-238.5C613.22,-238.5 622.59,-238.5 632.55,-238.5"/>
<polygon fill="black" stroke="black" points="632.68,-242 642.68,-238.5 632.68,-235 632.68,-242"/>
</g>
<!-- 139535791032752 -->
<g id="node10" class="node">
<title>139535791032752</title>
<polygon fill="none" stroke="black" points="321,-55.5 321,-91.5 512,-91.5 512,-55.5 321,-55.5"/>
<text text-anchor="middle" x="331" y="-69.8" font-family="Times,serif" font-size="14.00"> </text>
<polyline fill="none" stroke="black" points="341,-55.5 341,-91.5 "/>
<text text-anchor="middle" x="383.5" y="-69.8" font-family="Times,serif" font-size="14.00">data &#45;0.1589</text>
<polyline fill="none" stroke="black" points="426,-55.5 426,-91.5 "/>
<text text-anchor="middle" x="469" y="-69.8" font-family="Times,serif" font-size="14.00">grad &#45;0.1055</text>
</g>
<!-- 139535791032752&#45;&gt;139535791036544+ -->
<g id="edge30" class="edge">
<title>139535791032752&#45;&gt;139535791036544+</title>
<path fill="none" stroke="black" d="M512.13,-73.5C522.24,-73.5 532.02,-73.5 540.78,-73.5"/>
<polygon fill="black" stroke="black" points="540.93,-77 550.93,-73.5 540.93,-70 540.93,-77"/>
</g>
<!-- 139535791032752* -->
<g id="node11" class="node">
<title>139535791032752*</title>
<ellipse fill="none" stroke="black" cx="255" cy="-94.5" rx="27" ry="18"/>
<text text-anchor="middle" x="255" y="-90.8" font-family="Times,serif" font-size="14.00">*</text>
</g>
<!-- 139535791032752*&#45;&gt;139535791032752 -->
<g id="edge5" class="edge">
<title>139535791032752*&#45;&gt;139535791032752</title>
<path fill="none" stroke="black" d="M281.63,-91.13C290.12,-90.01 300.17,-88.68 310.88,-87.27"/>
<polygon fill="black" stroke="black" points="311.42,-90.73 320.88,-85.96 310.51,-83.79 311.42,-90.73"/>
</g>
<!-- 139535791038896 -->
<g id="node12" class="node">
<title>139535791038896</title>
<polygon fill="none" stroke="black" points="323.5,-0.5 323.5,-36.5 509.5,-36.5 509.5,-0.5 323.5,-0.5"/>
<text text-anchor="middle" x="333.5" y="-14.8" font-family="Times,serif" font-size="14.00"> </text>
<polyline fill="none" stroke="black" points="343.5,-0.5 343.5,-36.5 "/>
<text text-anchor="middle" x="383.5" y="-14.8" font-family="Times,serif" font-size="14.00">data 0.0000</text>
<polyline fill="none" stroke="black" points="423.5,-0.5 423.5,-36.5 "/>
<text text-anchor="middle" x="466.5" y="-14.8" font-family="Times,serif" font-size="14.00">grad &#45;0.1055</text>
</g>
<!-- 139535791038896&#45;&gt;139535791036544+ -->
<g id="edge16" class="edge">
<title>139535791038896&#45;&gt;139535791036544+</title>
<path fill="none" stroke="black" d="M487.68,-36.53C496.94,-39.32 506.25,-42.33 515,-45.5 525.52,-49.31 536.74,-54.13 546.71,-58.7"/>
<polygon fill="black" stroke="black" points="545.27,-61.89 555.82,-62.95 548.24,-55.55 545.27,-61.89"/>
</g>
<!-- 139535791034912 -->
<g id="node13" class="node">
<title>139535791034912</title>
<polygon fill="none" stroke="black" points="958,-220.5 958,-256.5 1145,-256.5 1145,-220.5 958,-220.5"/>
<text text-anchor="middle" x="968" y="-234.8" font-family="Times,serif" font-size="14.00"> </text>
<polyline fill="none" stroke="black" points="978,-220.5 978,-256.5 "/>
<text text-anchor="middle" x="1020.5" y="-234.8" font-family="Times,serif" font-size="14.00">data &#45;0.3430</text>
<polyline fill="none" stroke="black" points="1063,-220.5 1063,-256.5 "/>
<text text-anchor="middle" x="1104" y="-234.8" font-family="Times,serif" font-size="14.00">grad 0.0201</text>
</g>
<!-- 139535791035008tanh -->
<g id="node16" class="node">
<title>139535791035008tanh</title>
<ellipse fill="none" stroke="black" cx="1208" cy="-238.5" rx="27" ry="18"/>
<text text-anchor="middle" x="1208" y="-234.8" font-family="Times,serif" font-size="14.00">tanh</text>
</g>
<!-- 139535791034912&#45;&gt;139535791035008tanh -->
<g id="edge36" class="edge">
<title>139535791034912&#45;&gt;139535791035008tanh</title>
<path fill="none" stroke="black" d="M1145.05,-238.5C1154.06,-238.5 1162.79,-238.5 1170.7,-238.5"/>
<polygon fill="black" stroke="black" points="1170.95,-242 1180.95,-238.5 1170.95,-235 1170.95,-242"/>
</g>
<!-- 139535791034912+&#45;&gt;139535791034912 -->
<g id="edge6" class="edge">
<title>139535791034912+&#45;&gt;139535791034912</title>
<path fill="none" stroke="black" d="M922.21,-238.5C929.73,-238.5 938.43,-238.5 947.67,-238.5"/>
<polygon fill="black" stroke="black" points="947.89,-242 957.89,-238.5 947.89,-235 947.89,-242"/>
</g>
<!-- 139535791035008 -->
<g id="node15" class="node">
<title>139535791035008</title>
<polygon fill="none" stroke="black" points="1271,-220.5 1271,-256.5 1458,-256.5 1458,-220.5 1271,-220.5"/>
<text text-anchor="middle" x="1281" y="-234.8" font-family="Times,serif" font-size="14.00"> </text>
<polyline fill="none" stroke="black" points="1291,-220.5 1291,-256.5 "/>
<text text-anchor="middle" x="1333.5" y="-234.8" font-family="Times,serif" font-size="14.00">data &#45;0.3301</text>
<polyline fill="none" stroke="black" points="1376,-220.5 1376,-256.5 "/>
<text text-anchor="middle" x="1417" y="-234.8" font-family="Times,serif" font-size="14.00">grad 0.0225</text>
</g>
<!-- 139535791037552* -->
<g id="node24" class="node">
<title>139535791037552*</title>
<ellipse fill="none" stroke="black" cx="1521" cy="-183.5" rx="27" ry="18"/>
<text text-anchor="middle" x="1521" y="-179.8" font-family="Times,serif" font-size="14.00">*</text>
</g>
<!-- 139535791035008&#45;&gt;139535791037552* -->
<g id="edge35" class="edge">
<title>139535791035008&#45;&gt;139535791037552*</title>
<path fill="none" stroke="black" d="M1431.56,-220.45C1440.51,-217.64 1449.53,-214.63 1458,-211.5 1468.49,-207.62 1479.71,-202.78 1489.68,-198.22"/>
<polygon fill="black" stroke="black" points="1491.2,-201.37 1498.79,-193.97 1488.25,-195.02 1491.2,-201.37"/>
</g>
<!-- 139535791035008tanh&#45;&gt;139535791035008 -->
<g id="edge7" class="edge">
<title>139535791035008tanh&#45;&gt;139535791035008</title>
<path fill="none" stroke="black" d="M1235.21,-238.5C1242.73,-238.5 1251.43,-238.5 1260.67,-238.5"/>
<polygon fill="black" stroke="black" points="1260.89,-242 1270.89,-238.5 1260.89,-235 1260.89,-242"/>
</g>
<!-- 139535791037120 -->
<g id="node17" class="node">
<title>139535791037120</title>
<polygon fill="none" stroke="black" points="1271.5,-110.5 1271.5,-146.5 1457.5,-146.5 1457.5,-110.5 1271.5,-110.5"/>
<text text-anchor="middle" x="1281.5" y="-124.8" font-family="Times,serif" font-size="14.00"> </text>
<polyline fill="none" stroke="black" points="1291.5,-110.5 1291.5,-146.5 "/>
<text text-anchor="middle" x="1331.5" y="-124.8" font-family="Times,serif" font-size="14.00">data 0.6671</text>
<polyline fill="none" stroke="black" points="1371.5,-110.5 1371.5,-146.5 "/>
<text text-anchor="middle" x="1414.5" y="-124.8" font-family="Times,serif" font-size="14.00">grad &#45;0.1901</text>
</g>
<!-- 139535791037120&#45;&gt;139535791038608* -->
<g id="edge22" class="edge">
<title>139535791037120&#45;&gt;139535791038608*</title>
<path fill="none" stroke="black" d="M1457.6,-128.5C1466.77,-128.5 1475.65,-128.5 1483.69,-128.5"/>
<polygon fill="black" stroke="black" points="1483.74,-132 1493.74,-128.5 1483.74,-125 1483.74,-132"/>
</g>
<!-- 139535791037120tanh -->
<g id="node18" class="node">
<title>139535791037120tanh</title>
<ellipse fill="none" stroke="black" cx="1208" cy="-128.5" rx="27" ry="18"/>
<text text-anchor="middle" x="1208" y="-124.8" font-family="Times,serif" font-size="14.00">tanh</text>
</g>
<!-- 139535791037120tanh&#45;&gt;139535791037120 -->
<g id="edge8" class="edge">
<title>139535791037120tanh&#45;&gt;139535791037120</title>
<path fill="none" stroke="black" d="M1235.21,-128.5C1242.88,-128.5 1251.76,-128.5 1261.2,-128.5"/>
<polygon fill="black" stroke="black" points="1261.21,-132 1271.21,-128.5 1261.21,-125 1261.21,-132"/>
</g>
<!-- 139535791037168 -->
<g id="node19" class="node">
<title>139535791037168</title>
<polygon fill="none" stroke="black" points="958.5,-110.5 958.5,-146.5 1144.5,-146.5 1144.5,-110.5 958.5,-110.5"/>
<text text-anchor="middle" x="968.5" y="-124.8" font-family="Times,serif" font-size="14.00"> </text>
<polyline fill="none" stroke="black" points="978.5,-110.5 978.5,-146.5 "/>
<text text-anchor="middle" x="1018.5" y="-124.8" font-family="Times,serif" font-size="14.00">data 0.8055</text>
<polyline fill="none" stroke="black" points="1058.5,-110.5 1058.5,-146.5 "/>
<text text-anchor="middle" x="1101.5" y="-124.8" font-family="Times,serif" font-size="14.00">grad &#45;0.1055</text>
</g>
<!-- 139535791037168&#45;&gt;139535791037120tanh -->
<g id="edge24" class="edge">
<title>139535791037168&#45;&gt;139535791037120tanh</title>
<path fill="none" stroke="black" d="M1144.6,-128.5C1153.77,-128.5 1162.65,-128.5 1170.69,-128.5"/>
<polygon fill="black" stroke="black" points="1170.74,-132 1180.74,-128.5 1170.74,-125 1170.74,-132"/>
</g>
<!-- 139535791037168+&#45;&gt;139535791037168 -->
<g id="edge9" class="edge">
<title>139535791037168+&#45;&gt;139535791037168</title>
<path fill="none" stroke="black" d="M922.21,-128.5C929.88,-128.5 938.76,-128.5 948.2,-128.5"/>
<polygon fill="black" stroke="black" points="948.21,-132 958.21,-128.5 948.21,-125 948.21,-132"/>
</g>
<!-- 139535791031072 -->
<g id="node21" class="node">
<title>139535791031072</title>
<polygon fill="none" stroke="black" points="325.5,-275.5 325.5,-311.5 507.5,-311.5 507.5,-275.5 325.5,-275.5"/>
<text text-anchor="middle" x="335.5" y="-289.8" font-family="Times,serif" font-size="14.00"> </text>
<polyline fill="none" stroke="black" points="345.5,-275.5 345.5,-311.5 "/>
<text text-anchor="middle" x="385.5" y="-289.8" font-family="Times,serif" font-size="14.00">data 0.0000</text>
<polyline fill="none" stroke="black" points="425.5,-275.5 425.5,-311.5 "/>
<text text-anchor="middle" x="466.5" y="-289.8" font-family="Times,serif" font-size="14.00">grad 0.0201</text>
</g>
<!-- 139535791031072&#45;&gt;139535791034528+ -->
<g id="edge28" class="edge">
<title>139535791031072&#45;&gt;139535791034528+</title>
<path fill="none" stroke="black" d="M507.5,-293.5C519.13,-293.5 530.46,-293.5 540.48,-293.5"/>
<polygon fill="black" stroke="black" points="540.8,-297 550.8,-293.5 540.8,-290 540.8,-297"/>
</g>
<!-- 139535798264864 -->
<g id="node22" class="node">
<title>139535798264864</title>
<polygon fill="none" stroke="black" points="0,-213.5 0,-249.5 192,-249.5 192,-213.5 0,-213.5"/>
<text text-anchor="middle" x="15" y="-227.8" font-family="Times,serif" font-size="14.00">x1</text>
<polyline fill="none" stroke="black" points="30,-213.5 30,-249.5 "/>
<text text-anchor="middle" x="70" y="-227.8" font-family="Times,serif" font-size="14.00">data 1.0000</text>
<polyline fill="none" stroke="black" points="110,-213.5 110,-249.5 "/>
<text text-anchor="middle" x="151" y="-227.8" font-family="Times,serif" font-size="14.00">grad 0.0306</text>
</g>
<!-- 139535798264864&#45;&gt;139535791032752* -->
<g id="edge37" class="edge">
<title>139535798264864&#45;&gt;139535791032752*</title>
<path fill="none" stroke="black" d="M117.85,-213.31C146.94,-187.92 199.59,-141.98 230.19,-115.27"/>
<polygon fill="black" stroke="black" points="232.6,-117.82 237.84,-108.6 228,-112.54 232.6,-117.82"/>
</g>
<!-- 139535798264864&#45;&gt;139535791034288* -->
<g id="edge26" class="edge">
<title>139535798264864&#45;&gt;139535791034288*</title>
<path fill="none" stroke="black" d="M126.53,-249.56C155.06,-267 197.97,-293.24 225.98,-310.37"/>
<polygon fill="black" stroke="black" points="224.16,-313.36 234.52,-315.59 227.81,-307.38 224.16,-313.36"/>
</g>
<!-- 139535791037552 -->
<g id="node23" class="node">
<title>139535791037552</title>
<polygon fill="none" stroke="black" points="1584,-165.5 1584,-201.5 1771,-201.5 1771,-165.5 1584,-165.5"/>
<text text-anchor="middle" x="1594" y="-179.8" font-family="Times,serif" font-size="14.00"> </text>
<polyline fill="none" stroke="black" points="1604,-165.5 1604,-201.5 "/>
<text text-anchor="middle" x="1646.5" y="-179.8" font-family="Times,serif" font-size="14.00">data &#45;0.0074</text>
<polyline fill="none" stroke="black" points="1689,-165.5 1689,-201.5 "/>
<text text-anchor="middle" x="1730" y="-179.8" font-family="Times,serif" font-size="14.00">grad 1.0000</text>
</g>
<!-- 139535791037744+ -->
<g id="node29" class="node">
<title>139535791037744+</title>
<ellipse fill="none" stroke="black" cx="1900.5" cy="-183.5" rx="27" ry="18"/>
<text text-anchor="middle" x="1900.5" y="-179.8" font-family="Times,serif" font-size="14.00">+</text>
</g>
<!-- 139535791037552&#45;&gt;139535791037744+ -->
<g id="edge29" class="edge">
<title>139535791037552&#45;&gt;139535791037744+</title>
<path fill="none" stroke="black" d="M1771.26,-183.5C1803.72,-183.5 1838.27,-183.5 1863.32,-183.5"/>
<polygon fill="black" stroke="black" points="1863.44,-187 1873.44,-183.5 1863.44,-180 1863.44,-187"/>
</g>
<!-- 139535791037552*&#45;&gt;139535791037552 -->
<g id="edge10" class="edge">
<title>139535791037552*&#45;&gt;139535791037552</title>
<path fill="none" stroke="black" d="M1548.21,-183.5C1555.73,-183.5 1564.43,-183.5 1573.67,-183.5"/>
<polygon fill="black" stroke="black" points="1573.89,-187 1583.89,-183.5 1573.89,-180 1573.89,-187"/>
</g>
<!-- 139535791035584 -->
<g id="node25" class="node">
<title>139535791035584</title>
<polygon fill="none" stroke="black" points="643.5,-110.5 643.5,-146.5 829.5,-146.5 829.5,-110.5 643.5,-110.5"/>
<text text-anchor="middle" x="653.5" y="-124.8" font-family="Times,serif" font-size="14.00"> </text>
<polyline fill="none" stroke="black" points="663.5,-110.5 663.5,-146.5 "/>
<text text-anchor="middle" x="703.5" y="-124.8" font-family="Times,serif" font-size="14.00">data 0.9643</text>
<polyline fill="none" stroke="black" points="743.5,-110.5 743.5,-146.5 "/>
<text text-anchor="middle" x="786.5" y="-124.8" font-family="Times,serif" font-size="14.00">grad &#45;0.1055</text>
</g>
<!-- 139535791035584&#45;&gt;139535791037168+ -->
<g id="edge27" class="edge">
<title>139535791035584&#45;&gt;139535791037168+</title>
<path fill="none" stroke="black" d="M829.89,-128.5C839.67,-128.5 849.13,-128.5 857.66,-128.5"/>
<polygon fill="black" stroke="black" points="857.91,-132 867.91,-128.5 857.91,-125 857.91,-132"/>
</g>
<!-- 139535791035584* -->
<g id="node26" class="node">
<title>139535791035584*</title>
<ellipse fill="none" stroke="black" cx="578" cy="-128.5" rx="27" ry="18"/>
<text text-anchor="middle" x="578" y="-124.8" font-family="Times,serif" font-size="14.00">*</text>
</g>
<!-- 139535791035584*&#45;&gt;139535791035584 -->
<g id="edge11" class="edge">
<title>139535791035584*&#45;&gt;139535791035584</title>
<path fill="none" stroke="black" d="M605.19,-128.5C613.35,-128.5 622.89,-128.5 633.03,-128.5"/>
<polygon fill="black" stroke="black" points="633.35,-132 643.35,-128.5 633.35,-125 633.35,-132"/>
</g>
<!-- 139535791033568 -->
<g id="node27" class="node">
<title>139535791033568</title>
<polygon fill="none" stroke="black" points="1271.5,-165.5 1271.5,-201.5 1457.5,-201.5 1457.5,-165.5 1271.5,-165.5"/>
<text text-anchor="middle" x="1281.5" y="-179.8" font-family="Times,serif" font-size="14.00"> </text>
<polyline fill="none" stroke="black" points="1291.5,-165.5 1291.5,-201.5 "/>
<text text-anchor="middle" x="1331.5" y="-179.8" font-family="Times,serif" font-size="14.00">data 0.0225</text>
<polyline fill="none" stroke="black" points="1371.5,-165.5 1371.5,-201.5 "/>
<text text-anchor="middle" x="1414.5" y="-179.8" font-family="Times,serif" font-size="14.00">grad &#45;0.3301</text>
</g>
<!-- 139535791033568&#45;&gt;139535791037552* -->
<g id="edge34" class="edge">
<title>139535791033568&#45;&gt;139535791037552*</title>
<path fill="none" stroke="black" d="M1457.6,-183.5C1466.77,-183.5 1475.65,-183.5 1483.69,-183.5"/>
<polygon fill="black" stroke="black" points="1483.74,-187 1493.74,-183.5 1483.74,-180 1483.74,-187"/>
</g>
<!-- 139535791037744 -->
<g id="node28" class="node">
<title>139535791037744</title>
<polygon fill="none" stroke="black" points="2030,-163.5 2030,-199.5 2217,-199.5 2217,-163.5 2030,-163.5"/>
<text text-anchor="middle" x="2040" y="-177.8" font-family="Times,serif" font-size="14.00"> </text>
<polyline fill="none" stroke="black" points="2050,-163.5 2050,-199.5 "/>
<text text-anchor="middle" x="2092.5" y="-177.8" font-family="Times,serif" font-size="14.00">data &#45;0.0074</text>
<polyline fill="none" stroke="black" points="2135,-163.5 2135,-199.5 "/>
<text text-anchor="middle" x="2176" y="-177.8" font-family="Times,serif" font-size="14.00">grad 1.0000</text>
</g>
<!-- 139535791037744&#45;&gt;139535791038368+ -->
<g id="edge25" class="edge">
<title>139535791037744&#45;&gt;139535791038368+</title>
<path fill="none" stroke="black" d="M2217.05,-165.93C2226.34,-164.36 2235.33,-162.85 2243.44,-161.48"/>
<polygon fill="black" stroke="black" points="2244.27,-164.89 2253.55,-159.78 2243.11,-157.99 2244.27,-164.89"/>
</g>
<!-- 139535791037744+&#45;&gt;139535791037744 -->
<g id="edge12" class="edge">
<title>139535791037744+&#45;&gt;139535791037744</title>
<path fill="none" stroke="black" d="M1927.72,-183.26C1950.72,-183.05 1985.71,-182.74 2019.72,-182.43"/>
<polygon fill="black" stroke="black" points="2019.78,-185.93 2029.75,-182.34 2019.72,-178.93 2019.78,-185.93"/>
</g>
<!-- 139535791033712 -->
<g id="node30" class="node">
<title>139535791033712</title>
<polygon fill="none" stroke="black" points="0.5,-76.5 0.5,-112.5 191.5,-112.5 191.5,-76.5 0.5,-76.5"/>
<text text-anchor="middle" x="10.5" y="-90.8" font-family="Times,serif" font-size="14.00"> </text>
<polyline fill="none" stroke="black" points="20.5,-76.5 20.5,-112.5 "/>
<text text-anchor="middle" x="63" y="-90.8" font-family="Times,serif" font-size="14.00">data &#45;0.1589</text>
<polyline fill="none" stroke="black" points="105.5,-76.5 105.5,-112.5 "/>
<text text-anchor="middle" x="148.5" y="-90.8" font-family="Times,serif" font-size="14.00">grad &#45;0.1055</text>
</g>
<!-- 139535791033712&#45;&gt;139535791032752* -->
<g id="edge40" class="edge">
<title>139535791033712&#45;&gt;139535791032752*</title>
<path fill="none" stroke="black" d="M191.95,-94.5C201.01,-94.5 209.76,-94.5 217.69,-94.5"/>
<polygon fill="black" stroke="black" points="217.95,-98 227.95,-94.5 217.95,-91 217.95,-98"/>
</g>
<!-- 139535791033808 -->
<g id="node31" class="node">
<title>139535791033808</title>
<polygon fill="none" stroke="black" points="323,-110.5 323,-146.5 510,-146.5 510,-110.5 323,-110.5"/>
<text text-anchor="middle" x="333" y="-124.8" font-family="Times,serif" font-size="14.00"> </text>
<polyline fill="none" stroke="black" points="343,-110.5 343,-146.5 "/>
<text text-anchor="middle" x="385.5" y="-124.8" font-family="Times,serif" font-size="14.00">data &#45;0.4822</text>
<polyline fill="none" stroke="black" points="428,-110.5 428,-146.5 "/>
<text text-anchor="middle" x="469" y="-124.8" font-family="Times,serif" font-size="14.00">grad 0.2110</text>
</g>
<!-- 139535791033808&#45;&gt;139535791035584* -->
<g id="edge20" class="edge">
<title>139535791033808&#45;&gt;139535791035584*</title>
<path fill="none" stroke="black" d="M510.28,-128.5C520.92,-128.5 531.24,-128.5 540.46,-128.5"/>
<polygon fill="black" stroke="black" points="540.73,-132 550.73,-128.5 540.73,-125 540.73,-132"/>
</g>
<!-- 139535791031792 -->
<g id="node32" class="node">
<title>139535791031792</title>
<polygon fill="none" stroke="black" points="323.5,-220.5 323.5,-256.5 509.5,-256.5 509.5,-220.5 323.5,-220.5"/>
<text text-anchor="middle" x="333.5" y="-234.8" font-family="Times,serif" font-size="14.00"> </text>
<polyline fill="none" stroke="black" points="343.5,-220.5 343.5,-256.5 "/>
<text text-anchor="middle" x="383.5" y="-234.8" font-family="Times,serif" font-size="14.00">data 0.5159</text>
<polyline fill="none" stroke="black" points="423.5,-220.5 423.5,-256.5 "/>
<text text-anchor="middle" x="466.5" y="-234.8" font-family="Times,serif" font-size="14.00">grad &#45;0.0402</text>
</g>
<!-- 139535791031792&#45;&gt;139535791034720* -->
<g id="edge21" class="edge">
<title>139535791031792&#45;&gt;139535791034720*</title>
<path fill="none" stroke="black" d="M509.82,-238.5C520.73,-238.5 531.32,-238.5 540.74,-238.5"/>
<polygon fill="black" stroke="black" points="540.84,-242 550.84,-238.5 540.84,-235 540.84,-242"/>
</g>
<!-- 139535791033856 -->
<g id="node33" class="node">
<title>139535791033856</title>
<polygon fill="none" stroke="black" points="1586.5,-220.5 1586.5,-256.5 1768.5,-256.5 1768.5,-220.5 1586.5,-220.5"/>
<text text-anchor="middle" x="1596.5" y="-234.8" font-family="Times,serif" font-size="14.00"> </text>
<polyline fill="none" stroke="black" points="1606.5,-220.5 1606.5,-256.5 "/>
<text text-anchor="middle" x="1646.5" y="-234.8" font-family="Times,serif" font-size="14.00">data 0.0000</text>
<polyline fill="none" stroke="black" points="1686.5,-220.5 1686.5,-256.5 "/>
<text text-anchor="middle" x="1727.5" y="-234.8" font-family="Times,serif" font-size="14.00">grad 1.0000</text>
</g>
<!-- 139535791033856&#45;&gt;139535791037744+ -->
<g id="edge33" class="edge">
<title>139535791033856&#45;&gt;139535791037744+</title>
<path fill="none" stroke="black" d="M1750.86,-220.49C1789.32,-210.92 1834.79,-199.6 1865.23,-192.03"/>
<polygon fill="black" stroke="black" points="1866.08,-195.42 1874.94,-189.61 1864.39,-188.63 1866.08,-195.42"/>
</g>
<!-- 139535791034000 -->
<g id="node34" class="node">
<title>139535791034000</title>
<polygon fill="none" stroke="black" points="1271,-55.5 1271,-91.5 1458,-91.5 1458,-55.5 1271,-55.5"/>
<text text-anchor="middle" x="1281" y="-69.8" font-family="Times,serif" font-size="14.00"> </text>
<polyline fill="none" stroke="black" points="1291,-55.5 1291,-91.5 "/>
<text text-anchor="middle" x="1333.5" y="-69.8" font-family="Times,serif" font-size="14.00">data &#45;0.1901</text>
<polyline fill="none" stroke="black" points="1376,-55.5 1376,-91.5 "/>
<text text-anchor="middle" x="1417" y="-69.8" font-family="Times,serif" font-size="14.00">grad 0.6671</text>
</g>
<!-- 139535791034000&#45;&gt;139535791038608* -->
<g id="edge39" class="edge">
<title>139535791034000&#45;&gt;139535791038608*</title>
<path fill="none" stroke="black" d="M1431.56,-91.55C1440.51,-94.36 1449.53,-97.37 1458,-100.5 1468.49,-104.38 1479.71,-109.22 1489.68,-113.78"/>
<polygon fill="black" stroke="black" points="1488.25,-116.98 1498.79,-118.03 1491.2,-110.63 1488.25,-116.98"/>
</g>
<!-- 139536581691056 -->
<g id="node35" class="node">
<title>139536581691056</title>
<polygon fill="none" stroke="black" points="318,-165.5 318,-201.5 515,-201.5 515,-165.5 318,-165.5"/>
<text text-anchor="middle" x="333" y="-179.8" font-family="Times,serif" font-size="14.00">x2</text>
<polyline fill="none" stroke="black" points="348,-165.5 348,-201.5 "/>
<text text-anchor="middle" x="390.5" y="-179.8" font-family="Times,serif" font-size="14.00">data &#45;2.0000</text>
<polyline fill="none" stroke="black" points="433,-165.5 433,-201.5 "/>
<text text-anchor="middle" x="474" y="-179.8" font-family="Times,serif" font-size="14.00">grad 0.0612</text>
</g>
<!-- 139536581691056&#45;&gt;139535791034720* -->
<g id="edge23" class="edge">
<title>139536581691056&#45;&gt;139535791034720*</title>
<path fill="none" stroke="black" d="M484.74,-201.56C494.95,-204.66 505.31,-208.01 515,-211.5 525.27,-215.19 536.27,-219.77 546.1,-224.09"/>
<polygon fill="black" stroke="black" points="544.92,-227.4 555.47,-228.3 547.78,-221.01 544.92,-227.4"/>
</g>
<!-- 139536581691056&#45;&gt;139535791035584* -->
<g id="edge31" class="edge">
<title>139536581691056&#45;&gt;139535791035584*</title>
<path fill="none" stroke="black" d="M487.68,-165.47C496.94,-162.68 506.25,-159.67 515,-156.5 525.52,-152.69 536.74,-147.87 546.71,-143.3"/>
<polygon fill="black" stroke="black" points="548.24,-146.45 555.82,-139.05 545.27,-140.11 548.24,-146.45"/>
</g>
<!-- 139535791038368 -->
<g id="node36" class="node">
<title>139535791038368</title>
<polygon fill="none" stroke="black" points="2343,-137.5 2343,-173.5 2561,-173.5 2561,-137.5 2343,-137.5"/>
<text text-anchor="middle" x="2368.5" y="-151.8" font-family="Times,serif" font-size="14.00">output</text>
<polyline fill="none" stroke="black" points="2394,-137.5 2394,-173.5 "/>
<text text-anchor="middle" x="2436.5" y="-151.8" font-family="Times,serif" font-size="14.00">data &#45;0.1343</text>
<polyline fill="none" stroke="black" points="2479,-137.5 2479,-173.5 "/>
<text text-anchor="middle" x="2520" y="-151.8" font-family="Times,serif" font-size="14.00">grad 1.0000</text>
</g>
<!-- 139535791038368+&#45;&gt;139535791038368 -->
<g id="edge13" class="edge">
<title>139535791038368+&#45;&gt;139535791038368</title>
<path fill="none" stroke="black" d="M2307.19,-155.5C2314.65,-155.5 2323.28,-155.5 2332.56,-155.5"/>
<polygon fill="black" stroke="black" points="2332.84,-159 2342.84,-155.5 2332.84,-152 2332.84,-159"/>
</g>
<!-- 139535791034288 -->
<g id="node38" class="node">
<title>139535791034288</title>
<polygon fill="none" stroke="black" points="325.5,-330.5 325.5,-366.5 507.5,-366.5 507.5,-330.5 325.5,-330.5"/>
<text text-anchor="middle" x="335.5" y="-344.8" font-family="Times,serif" font-size="14.00"> </text>
<polyline fill="none" stroke="black" points="345.5,-330.5 345.5,-366.5 "/>
<text text-anchor="middle" x="385.5" y="-344.8" font-family="Times,serif" font-size="14.00">data 0.6888</text>
<polyline fill="none" stroke="black" points="425.5,-330.5 425.5,-366.5 "/>
<text text-anchor="middle" x="466.5" y="-344.8" font-family="Times,serif" font-size="14.00">grad 0.0201</text>
</g>
<!-- 139535791034288&#45;&gt;139535791034528+ -->
<g id="edge18" class="edge">
<title>139535791034288&#45;&gt;139535791034528+</title>
<path fill="none" stroke="black" d="M487.68,-330.47C496.94,-327.68 506.25,-324.67 515,-321.5 525.52,-317.69 536.74,-312.87 546.71,-308.3"/>
<polygon fill="black" stroke="black" points="548.24,-311.45 555.82,-304.05 545.27,-305.11 548.24,-311.45"/>
</g>
<!-- 139535791034288*&#45;&gt;139535791034288 -->
<g id="edge14" class="edge">
<title>139535791034288*&#45;&gt;139535791034288</title>
<path fill="none" stroke="black" d="M281.63,-330.87C291.28,-332.15 302.95,-333.68 315.32,-335.31"/>
<polygon fill="black" stroke="black" points="314.99,-338.8 325.36,-336.63 315.9,-331.86 314.99,-338.8"/>
</g>
</g>
</svg>
