<?xml version="1.0" encoding="UTF-8" standalone="no"?>
<!DOCTYPE svg PUBLIC "-//W3C//DTD SVG 1.1//EN"
 "http://www.w3.org/Graphics/SVG/1.1/DTD/svg11.dtd">
<!-- Generated by graphviz version 2.43.0 (0)
 -->
<!-- Title: %3 Pages: 1 -->
<svg width="1456pt" height="210pt"
 viewBox="0.00 0.00 1456.00 210.00" xmlns="http://www.w3.org/2000/svg" xmlns:xlink="http://www.w3.org/1999/xlink">
<g id="graph0" class="graph" transform="scale(1 1) rotate(0) translate(4 206)">
<title>%3</title>
<polygon fill="white" stroke="transparent" points="-4,4 -4,-206 1452,-206 1452,4 -4,4"/>
<!-- 139536578410064 -->
<g id="node1" class="node">
<title>139536578410064</title>
<polygon fill="none" stroke="black" points="323,-165.5 323,-201.5 505,-201.5 505,-165.5 323,-165.5"/>
<text text-anchor="middle" x="333" y="-179.8" font-family="Times,serif" font-size="14.00"> </text>
<polyline fill="none" stroke="black" points="343,-165.5 343,-201.5 "/>
<text text-anchor="middle" x="383" y="-179.8" font-family="Times,serif" font-size="14.00">data 0.0000</text>
<polyline fill="none" stroke="black" points="423,-165.5 423,-201.5 "/>
<text text-anchor="middle" x="464" y="-179.8" font-family="Times,serif" font-size="14.00">grad 0.1501</text>
</g>
<!-- 139536578410832+ -->
<g id="node11" class="node">
<title>139536578410832+</title>
<ellipse fill="none" stroke="black" cx="573" cy="-128.5" rx="27" ry="18"/>
<text text-anchor="middle" x="573" y="-124.8" font-family="Times,serif" font-size="14.00">+</text>
</g>
<!-- 139536578410064&#45;&gt;139536578410832+ -->
<g id="edge8" class="edge">
<title>139536578410064&#45;&gt;139536578410832+</title>
<path fill="none" stroke="black" d="M483.11,-165.46C492.22,-162.66 501.38,-159.65 510,-156.5 520.51,-152.66 531.73,-147.83 541.69,-143.26"/>
<polygon fill="black" stroke="black" points="543.22,-146.41 550.8,-139.01 540.26,-140.07 543.22,-146.41"/>
</g>
<!-- 139536578401376 -->
<g id="node2" class="node">
<title>139536578401376</title>
<polygon fill="none" stroke="black" points="1252,-82.5 1252,-118.5 1448,-118.5 1448,-82.5 1252,-82.5"/>
<text text-anchor="middle" x="1269" y="-96.8" font-family="Times,serif" font-size="14.00">out</text>
<polyline fill="none" stroke="black" points="1286,-82.5 1286,-118.5 "/>
<text text-anchor="middle" x="1326" y="-96.8" font-family="Times,serif" font-size="14.00">data 0.9219</text>
<polyline fill="none" stroke="black" points="1366,-82.5 1366,-118.5 "/>
<text text-anchor="middle" x="1407" y="-96.8" font-family="Times,serif" font-size="14.00">grad 1.0000</text>
</g>
<!-- 139536578401376tanh -->
<g id="node3" class="node">
<title>139536578401376tanh</title>
<ellipse fill="none" stroke="black" cx="1189" cy="-100.5" rx="27" ry="18"/>
<text text-anchor="middle" x="1189" y="-96.8" font-family="Times,serif" font-size="14.00">tanh</text>
</g>
<!-- 139536578401376tanh&#45;&gt;139536578401376 -->
<g id="edge1" class="edge">
<title>139536578401376tanh&#45;&gt;139536578401376</title>
<path fill="none" stroke="black" d="M1216.26,-100.5C1223.77,-100.5 1232.46,-100.5 1241.72,-100.5"/>
<polygon fill="black" stroke="black" points="1241.97,-104 1251.97,-100.5 1241.97,-97 1241.97,-104"/>
</g>
<!-- 139536578411216 -->
<g id="node4" class="node">
<title>139536578411216</title>
<polygon fill="none" stroke="black" points="323,-110.5 323,-146.5 505,-146.5 505,-110.5 323,-110.5"/>
<text text-anchor="middle" x="333" y="-124.8" font-family="Times,serif" font-size="14.00"> </text>
<polyline fill="none" stroke="black" points="343,-110.5 343,-146.5 "/>
<text text-anchor="middle" x="383" y="-124.8" font-family="Times,serif" font-size="14.00">data 1.3777</text>
<polyline fill="none" stroke="black" points="423,-110.5 423,-146.5 "/>
<text text-anchor="middle" x="464" y="-124.8" font-family="Times,serif" font-size="14.00">grad 0.1501</text>
</g>
<!-- 139536578411216&#45;&gt;139536578410832+ -->
<g id="edge10" class="edge">
<title>139536578411216&#45;&gt;139536578410832+</title>
<path fill="none" stroke="black" d="M505.42,-128.5C516,-128.5 526.29,-128.5 535.48,-128.5"/>
<polygon fill="black" stroke="black" points="535.73,-132 545.73,-128.5 535.73,-125 535.73,-132"/>
</g>
<!-- 139536578411216* -->
<g id="node5" class="node">
<title>139536578411216*</title>
<ellipse fill="none" stroke="black" cx="255" cy="-128.5" rx="27" ry="18"/>
<text text-anchor="middle" x="255" y="-124.8" font-family="Times,serif" font-size="14.00">*</text>
</g>
<!-- 139536578411216*&#45;&gt;139536578411216 -->
<g id="edge2" class="edge">
<title>139536578411216*&#45;&gt;139536578411216</title>
<path fill="none" stroke="black" d="M282.28,-128.5C291.1,-128.5 301.53,-128.5 312.6,-128.5"/>
<polygon fill="black" stroke="black" points="312.91,-132 322.91,-128.5 312.91,-125 312.91,-132"/>
</g>
<!-- 139536578407136 -->
<g id="node6" class="node">
<title>139536578407136</title>
<polygon fill="none" stroke="black" points="636,-55.5 636,-91.5 818,-91.5 818,-55.5 636,-55.5"/>
<text text-anchor="middle" x="646" y="-69.8" font-family="Times,serif" font-size="14.00"> </text>
<polyline fill="none" stroke="black" points="656,-55.5 656,-91.5 "/>
<text text-anchor="middle" x="696" y="-69.8" font-family="Times,serif" font-size="14.00">data 0.2238</text>
<polyline fill="none" stroke="black" points="736,-55.5 736,-91.5 "/>
<text text-anchor="middle" x="777" y="-69.8" font-family="Times,serif" font-size="14.00">grad 0.1501</text>
</g>
<!-- 139536578408240+ -->
<g id="node9" class="node">
<title>139536578408240+</title>
<ellipse fill="none" stroke="black" cx="881" cy="-100.5" rx="27" ry="18"/>
<text text-anchor="middle" x="881" y="-96.8" font-family="Times,serif" font-size="14.00">+</text>
</g>
<!-- 139536578407136&#45;&gt;139536578408240+ -->
<g id="edge9" class="edge">
<title>139536578407136&#45;&gt;139536578408240+</title>
<path fill="none" stroke="black" d="M818.18,-89.52C827.42,-91.16 836.38,-92.75 844.47,-94.19"/>
<polygon fill="black" stroke="black" points="844.1,-97.68 854.56,-95.98 845.32,-90.79 844.1,-97.68"/>
</g>
<!-- 139536578407136* -->
<g id="node7" class="node">
<title>139536578407136*</title>
<ellipse fill="none" stroke="black" cx="573" cy="-73.5" rx="27" ry="18"/>
<text text-anchor="middle" x="573" y="-69.8" font-family="Times,serif" font-size="14.00">*</text>
</g>
<!-- 139536578407136*&#45;&gt;139536578407136 -->
<g id="edge3" class="edge">
<title>139536578407136*&#45;&gt;139536578407136</title>
<path fill="none" stroke="black" d="M600.13,-73.5C607.67,-73.5 616.39,-73.5 625.64,-73.5"/>
<polygon fill="black" stroke="black" points="625.87,-77 635.87,-73.5 625.87,-70 625.87,-77"/>
</g>
<!-- 139536578408240 -->
<g id="node8" class="node">
<title>139536578408240</title>
<polygon fill="none" stroke="black" points="944,-82.5 944,-118.5 1126,-118.5 1126,-82.5 944,-82.5"/>
<text text-anchor="middle" x="954" y="-96.8" font-family="Times,serif" font-size="14.00"> </text>
<polyline fill="none" stroke="black" points="964,-82.5 964,-118.5 "/>
<text text-anchor="middle" x="1004" y="-96.8" font-family="Times,serif" font-size="14.00">data 1.6015</text>
<polyline fill="none" stroke="black" points="1044,-82.5 1044,-118.5 "/>
<text text-anchor="middle" x="1085" y="-96.8" font-family="Times,serif" font-size="14.00">grad 0.1501</text>
</g>
<!-- 139536578408240&#45;&gt;139536578401376tanh -->
<g id="edge7" class="edge">
<title>139536578408240&#45;&gt;139536578401376tanh</title>
<path fill="none" stroke="black" d="M1126.18,-100.5C1135.14,-100.5 1143.83,-100.5 1151.73,-100.5"/>
<polygon fill="black" stroke="black" points="1151.96,-104 1161.96,-100.5 1151.96,-97 1151.96,-104"/>
</g>
<!-- 139536578408240+&#45;&gt;139536578408240 -->
<g id="edge4" class="edge">
<title>139536578408240+&#45;&gt;139536578408240</title>
<path fill="none" stroke="black" d="M908.13,-100.5C915.67,-100.5 924.39,-100.5 933.64,-100.5"/>
<polygon fill="black" stroke="black" points="933.87,-104 943.87,-100.5 933.87,-97 933.87,-104"/>
</g>
<!-- 139536578410832 -->
<g id="node10" class="node">
<title>139536578410832</title>
<polygon fill="none" stroke="black" points="636,-110.5 636,-146.5 818,-146.5 818,-110.5 636,-110.5"/>
<text text-anchor="middle" x="646" y="-124.8" font-family="Times,serif" font-size="14.00"> </text>
<polyline fill="none" stroke="black" points="656,-110.5 656,-146.5 "/>
<text text-anchor="middle" x="696" y="-124.8" font-family="Times,serif" font-size="14.00">data 1.3777</text>
<polyline fill="none" stroke="black" points="736,-110.5 736,-146.5 "/>
<text text-anchor="middle" x="777" y="-124.8" font-family="Times,serif" font-size="14.00">grad 0.1501</text>
</g>
<!-- 139536578410832&#45;&gt;139536578408240+ -->
<g id="edge14" class="edge">
<title>139536578410832&#45;&gt;139536578408240+</title>
<path fill="none" stroke="black" d="M818.18,-111.89C827.61,-110.15 836.75,-108.47 844.98,-106.95"/>
<polygon fill="black" stroke="black" points="845.66,-110.39 854.86,-105.13 844.39,-103.5 845.66,-110.39"/>
</g>
<!-- 139536578410832+&#45;&gt;139536578410832 -->
<g id="edge5" class="edge">
<title>139536578410832+&#45;&gt;139536578410832</title>
<path fill="none" stroke="black" d="M600.13,-128.5C607.67,-128.5 616.39,-128.5 625.64,-128.5"/>
<polygon fill="black" stroke="black" points="625.87,-132 635.87,-128.5 625.87,-125 625.87,-132"/>
</g>
<!-- 139536578406752 -->
<g id="node12" class="node">
<title>139536578406752</title>
<polygon fill="none" stroke="black" points="0,-138.5 0,-174.5 192,-174.5 192,-138.5 0,-138.5"/>
<text text-anchor="middle" x="15" y="-152.8" font-family="Times,serif" font-size="14.00">x1</text>
<polyline fill="none" stroke="black" points="30,-138.5 30,-174.5 "/>
<text text-anchor="middle" x="70" y="-152.8" font-family="Times,serif" font-size="14.00">data 2.0000</text>
<polyline fill="none" stroke="black" points="110,-138.5 110,-174.5 "/>
<text text-anchor="middle" x="151" y="-152.8" font-family="Times,serif" font-size="14.00">grad 0.1034</text>
</g>
<!-- 139536578406752&#45;&gt;139536578411216* -->
<g id="edge11" class="edge">
<title>139536578406752&#45;&gt;139536578411216*</title>
<path fill="none" stroke="black" d="M192.4,-139.49C201.69,-137.83 210.64,-136.23 218.71,-134.79"/>
<polygon fill="black" stroke="black" points="219.53,-138.2 228.76,-133 218.31,-131.31 219.53,-138.2"/>
</g>
<!-- 139536578409824 -->
<g id="node13" class="node">
<title>139536578409824</title>
<polygon fill="none" stroke="black" points="318,-55.5 318,-91.5 510,-91.5 510,-55.5 318,-55.5"/>
<text text-anchor="middle" x="333" y="-69.8" font-family="Times,serif" font-size="14.00">x2</text>
<polyline fill="none" stroke="black" points="348,-55.5 348,-91.5 "/>
<text text-anchor="middle" x="388" y="-69.8" font-family="Times,serif" font-size="14.00">data 0.4338</text>
<polyline fill="none" stroke="black" points="428,-55.5 428,-91.5 "/>
<text text-anchor="middle" x="469" y="-69.8" font-family="Times,serif" font-size="14.00">grad 0.0774</text>
</g>
<!-- 139536578409824&#45;&gt;139536578407136* -->
<g id="edge13" class="edge">
<title>139536578409824&#45;&gt;139536578407136*</title>
<path fill="none" stroke="black" d="M510.4,-73.5C519.32,-73.5 527.93,-73.5 535.75,-73.5"/>
<polygon fill="black" stroke="black" points="535.86,-77 545.86,-73.5 535.86,-70 535.86,-77"/>
</g>
<!-- 139536578411936 -->
<g id="node14" class="node">
<title>139536578411936</title>
<polygon fill="none" stroke="black" points="5,-83.5 5,-119.5 187,-119.5 187,-83.5 5,-83.5"/>
<text text-anchor="middle" x="15" y="-97.8" font-family="Times,serif" font-size="14.00"> </text>
<polyline fill="none" stroke="black" points="25,-83.5 25,-119.5 "/>
<text text-anchor="middle" x="65" y="-97.8" font-family="Times,serif" font-size="14.00">data 0.6888</text>
<polyline fill="none" stroke="black" points="105,-83.5 105,-119.5 "/>
<text text-anchor="middle" x="146" y="-97.8" font-family="Times,serif" font-size="14.00">grad 0.3002</text>
</g>
<!-- 139536578411936&#45;&gt;139536578411216* -->
<g id="edge6" class="edge">
<title>139536578411936&#45;&gt;139536578411216*</title>
<path fill="none" stroke="black" d="M187.42,-117.05C198.41,-118.94 209.09,-120.78 218.55,-122.4"/>
<polygon fill="black" stroke="black" points="218.23,-125.9 228.68,-124.15 219.42,-119 218.23,-125.9"/>
</g>
<!-- 139535798142448 -->
<g id="node15" class="node">
<title>139535798142448</title>
<polygon fill="none" stroke="black" points="323,-0.5 323,-36.5 505,-36.5 505,-0.5 323,-0.5"/>
<text text-anchor="middle" x="333" y="-14.8" font-family="Times,serif" font-size="14.00"> </text>
<polyline fill="none" stroke="black" points="343,-0.5 343,-36.5 "/>
<text text-anchor="middle" x="383" y="-14.8" font-family="Times,serif" font-size="14.00">data 0.5159</text>
<polyline fill="none" stroke="black" points="423,-0.5 423,-36.5 "/>
<text text-anchor="middle" x="464" y="-14.8" font-family="Times,serif" font-size="14.00">grad 0.0651</text>
</g>
<!-- 139535798142448&#45;&gt;139536578407136* -->
<g id="edge12" class="edge">
<title>139535798142448&#45;&gt;139536578407136*</title>
<path fill="none" stroke="black" d="M480.25,-36.57C490.28,-39.68 500.47,-43.03 510,-46.5 520.26,-50.23 531.25,-54.81 541.08,-59.14"/>
<polygon fill="black" stroke="black" points="539.9,-62.44 550.46,-63.33 542.76,-56.05 539.9,-62.44"/>
</g>
</g>
</svg>
